HIERARCHY
ROOT Hips
{
	OFFSET 0.000000 0.000000 0.000000
	CHANNELS 6 Xposition Yposition Zposition Zrotation Yrotation Xrotation 
	JOINT LHipJoint
	{
		OFFSET 0.000000 0.000000 0.000000
		CHANNELS 3 Zrotation Yrotation Xrotation
		JOINT LeftUpLeg
		{
			OFFSET 1.363060 -1.794630 0.839290
			CHANNELS 3 Zrotation Yrotation Xrotation
			JOINT LeftLeg
			{
				OFFSET 2.448110 -6.726130 0.000000
				CHANNELS 3 Zrotation Yrotation Xrotation
				JOINT LeftFoot
				{
					OFFSET 2.562200 -7.039590 0.000000
					CHANNELS 3 Zrotation Yrotation Xrotation
					JOINT LeftToeBase
					{
						OFFSET 0.157640 -0.433110 2.322550
						CHANNELS 3 Zrotation Yrotation Xrotation
						End Site
						{
							OFFSET 0.000000 0.000000 0.000000
						}
					}
				}
			}
		}
	}
	JOINT RHipJoint
	{
		OFFSET 0.000000 0.000000 0.000000
		CHANNELS 3 Zrotation Yrotation Xrotation
		JOINT RightUpLeg
		{
			OFFSET -1.305520 -1.794630 0.839290
			CHANNELS 3 Zrotation Yrotation Xrotation
			JOINT RightLeg
			{
				OFFSET -2.542530 -6.985550 0.000000
				CHANNELS 3 Zrotation Yrotation Xrotation
				JOINT RightFoot
				{
					OFFSET -2.568260 -7.056230 0.000000
					CHANNELS 3 Zrotation Yrotation Xrotation
					JOINT RightToeBase
					{
						OFFSET -0.164730 -0.452590 2.363150
						CHANNELS 3 Zrotation Yrotation Xrotation
						End Site
						{
							OFFSET 0.000000 0.000000 0.000000
						}
					}
				}
			}
		}
	}
	JOINT LowerBack
	{
		OFFSET 0.000000 0.000000 0.000000
		CHANNELS 3 Zrotation Yrotation Xrotation
		JOINT Spine
		{
			OFFSET 0.028270 2.035590 -0.193380
			CHANNELS 3 Zrotation Yrotation Xrotation
			JOINT Spine1
			{
				OFFSET 0.056720 2.048850 -0.042750
				CHANNELS 3 Zrotation Yrotation Xrotation
				JOINT Neck
				{
					OFFSET 0.000000 0.000000 0.000000
					CHANNELS 3 Zrotation Yrotation Xrotation
					JOINT Neck1
					{
						OFFSET -0.054170 1.746240 0.172020
						CHANNELS 3 Zrotation Yrotation Xrotation
						JOINT Head
						{
							OFFSET 0.104070 1.761360 -0.123970
							CHANNELS 3 Zrotation Yrotation Xrotation
							End Site
							{
								OFFSET 0.000000 0.000000 0.000000
							}
						}
					}
				}
				JOINT LeftShoulder
				{
					OFFSET 0.000000 0.000000 0.000000
					CHANNELS 3 Zrotation Yrotation Xrotation
					JOINT LeftArm
					{
						OFFSET 3.362410 1.200890 -0.311210
						CHANNELS 3 Zrotation Yrotation Xrotation
						JOINT LeftForeArm
						{
							OFFSET 4.983000 -0.000000 -0.000000
							CHANNELS 3 Zrotation Yrotation Xrotation
							JOINT LeftHand
							{
								OFFSET 3.483560 -0.000000 -0.000000
								CHANNELS 3 Zrotation Yrotation Xrotation
								JOINT LeftFingerBase
								{
									OFFSET 0.000000 0.000000 0.000000
									CHANNELS 3 Zrotation Yrotation Xrotation
									JOINT LeftHandIndex1
									{
										OFFSET 0.715260 -0.000000 -0.000000
										CHANNELS 3 Zrotation Yrotation Xrotation
										End Site
										{
											OFFSET 0.000000 0.000000 0.000000
										}
									}
								}
								JOINT LThumb
								{
									OFFSET 0.000000 0.000000 0.000000
									CHANNELS 3 Zrotation Yrotation Xrotation
									End Site
									{
										OFFSET 0.000000 0.000000 0.000000
									}
								}
							}
						}
					}
				}
				JOINT RightShoulder
				{
					OFFSET 0.000000 0.000000 0.000000
					CHANNELS 3 Zrotation Yrotation Xrotation
					JOINT RightArm
					{
						OFFSET -3.136600 1.374050 -0.404650
						CHANNELS 3 Zrotation Yrotation Xrotation
						JOINT RightForeArm
						{
							OFFSET -5.241900 -0.000000 -0.000000
							CHANNELS 3 Zrotation Yrotation Xrotation
							JOINT RightHand
							{
								OFFSET -3.444170 -0.000000 -0.000000
								CHANNELS 3 Zrotation Yrotation Xrotation
								JOINT RightFingerBase
								{
									OFFSET 0.000000 0.000000 0.000000
									CHANNELS 3 Zrotation Yrotation Xrotation
									JOINT RightHandIndex1
									{
										OFFSET -0.622530 -0.000000 -0.000000
										CHANNELS 3 Zrotation Yrotation Xrotation
										End Site
										{
											OFFSET 0.000000 0.000000 0.000000
										}
									}
								}
								JOINT RThumb
								{
									OFFSET 0.000000 0.000000 0.000000
									CHANNELS 3 Zrotation Yrotation Xrotation
									End Site
									{
										OFFSET 0.000000 0.000000 0.000000
									}
								}
							}
						}
					}
				}
			}
		}
	}
}
MOTION
Frames: 7
Frame Time: 0.008333
0.481878 17.512611 -14.845486 -2.899136 -0.248017 8.137962 -0.966342 -0.568850 0.054740 -13.238313 2.683688 -23.627613 0.983414 9.421507 26.074271 -0.429196 3.862176 -3.435360 0.605600 -4.981400 -13.855400 -0.946197 0.106181 -0.280781 18.983162 4.468019 -20.099785 -1.466518 -9.666064 27.218616 -0.315639 -0.491764 -7.157849 -0.011000 -0.676100 1.858000 1.597257 -0.603867 2.419128 1.513452 -0.689349 -1.418440 1.161301 -0.698785 7.611627 -3.655110 -0.647227 -8.843401 3.268608 -0.324071 29.673979 0.707800 0.323400 11.023100 9.233258 5.347399 0.518724 -96.098547 -9.658614 29.129690 7.277431 -16.493900 -1.106405 -0.129188 -0.683171 -1.795875 23.769928 -3.542503 -1.239900 -7.125000 0.000000 0.000000 -2.045600 26.919700 0.898400 -8.285094 -4.383276 0.160098 93.783390 10.162990 11.290960 -9.559151 20.923401 -2.063692 0.753566 0.887979 33.084541 -20.590261 -23.330603 8.939400 7.125000 0.000000 0.000000 9.443000 -55.753400 -2.507800
0.482198 17.495988 -14.865698 -2.882932 -0.287242 8.306268 -0.928010 -0.600219 0.008383 -13.283160 2.659701 -24.115112 1.066111 9.583321 26.546023 -0.418524 3.825507 -3.627762 0.609853 -4.998469 -13.904157 -0.975791 0.130837 -0.292146 18.935449 4.672642 -20.580771 -1.552061 -9.838975 27.709899 -0.325602 -0.487246 -7.366536 -0.009669 -0.635203 1.745630 1.567027 -0.591078 2.655652 1.509207 -0.663162 -1.409357 1.171325 -0.685889 7.546168 -3.630829 -0.619685 -8.864895 3.266296 -0.289903 29.249096 0.691421 0.337943 10.860826 9.229827 5.342056 0.517699 -95.995565 -9.496279 28.962211 7.295537 -16.532956 -1.113156 -0.125631 -0.684746 -1.955500 23.758233 -3.438196 -1.192514 -7.125000 0.000000 0.000000 -2.056141 27.035196 0.897421 -8.277794 -4.384745 0.159282 93.686397 10.086811 11.087208 -9.510361 20.843259 -2.044458 0.755311 0.889688 33.072345 -20.596108 -23.350809 8.950060 7.125000 0.000000 0.000000 9.445971 -55.777685 -2.514118
0.482839 17.478624 -14.886796 -2.861969 -0.317717 8.486919 -0.887875 -0.632519 -0.039983 -13.334581 2.626125 -24.621136 1.152173 9.748853 27.029808 -0.407681 3.789809 -3.828759 0.613470 -5.013081 -13.945951 -1.006819 0.156022 -0.303802 18.878863 4.879475 -21.083972 -1.641523 -10.016500 28.215234 -0.336219 -0.484186 -7.588688 -0.008754 -0.603721 1.659050 1.539254 -0.580160 2.900056 1.504584 -0.639342 -1.399129 1.179188 -0.673619 7.481613 -3.622517 -0.595145 -8.887505 3.275242 -0.261401 28.818489 0.682836 0.348742 10.697272 9.224921 5.336498 0.516817 -95.891874 -9.326522 28.797231 7.314796 -16.573981 -1.120037 -0.121962 -0.686538 -2.138185 23.753765 -3.333941 -1.145395 -7.125000 0.000000 0.000000 -2.061163 27.150818 0.893999 -8.271086 -4.387096 0.159129 93.585096 10.005523 10.854857 -9.451491 20.747570 -2.021794 0.756836 0.891163 33.092641 -20.579761 -23.363046 8.947351 7.125000 0.000000 0.000000 9.469309 -55.789006 -2.523013
0.483887 17.460531 -14.908462 -2.835569 -0.342031 8.679276 -0.845684 -0.665579 -0.090287 -13.393390 2.581299 -25.145415 1.242631 9.919649 27.530877 -0.396614 3.755389 -4.044001 0.615872 -5.022430 -13.972623 -1.039493 0.181601 -0.315692 18.812280 5.083543 -21.611377 -1.735607 -10.199512 28.738199 -0.349036 -0.474364 -7.828337 -0.008067 -0.581329 1.597451 1.515426 -0.570365 3.152693 1.499473 -0.616899 -1.387982 1.183436 -0.661548 7.416667 -3.622612 -0.575721 -8.906879 3.286596 -0.240139 28.378577 0.676403 0.355078 10.529773 9.218967 5.331004 0.516209 -95.790046 -9.149284 28.630505 7.332951 -16.612564 -1.126481 -0.118373 -0.688381 -2.328485 23.749588 -3.232912 -1.099720 -7.125000 0.000000 0.000000 -2.065891 27.262877 0.890562 -8.264595 -4.390255 0.159762 93.478349 9.911055 10.594077 -9.383709 20.638547 -1.996278 0.759267 0.890928 33.165770 -20.570317 -23.334421 8.934160 7.125000 0.000000 0.000000 9.466465 -55.759338 -2.515412
0.485345 17.441114 -14.930949 -2.814942 -0.365357 8.883041 -0.800431 -0.699028 -0.142722 -13.447131 2.524589 -25.692702 1.340126 10.099141 28.059986 -0.386157 3.726766 -4.280476 0.617679 -5.029899 -13.993943 -1.074745 0.207461 -0.327489 18.747168 5.291611 -22.163568 -1.835715 -10.389684 29.284334 -0.364845 -0.454604 -8.090750 -0.007654 -0.565920 1.555092 1.505615 -0.559731 3.419302 1.495385 -0.592876 -1.377109 1.185804 -0.647850 7.345214 -3.640444 -0.560626 -8.933487 3.307133 -0.224483 27.944658 0.677819 0.357339 10.368801 9.211958 5.325464 0.515298 -95.693049 -8.962043 28.464224 7.346316 -16.641526 -1.131212 -0.115045 -0.690147 -2.508800 23.748297 -3.132887 -1.054739 -7.125000 0.000000 0.000000 -2.068249 27.373653 0.886240 -8.258252 -4.393769 0.160434 93.361465 9.791515 10.316553 -9.312273 20.524725 -1.969974 0.762751 0.888858 33.283155 -20.575739 -23.261402 8.912998 7.125000 0.000000 0.000000 9.427161 -55.686866 -2.488244
0.487221 17.419917 -14.954189 -2.801935 -0.386405 9.101101 -0.751567 -0.733079 -0.197771 -13.492840 2.453623 -26.269633 1.446080 10.289194 28.623649 -0.375255 3.700198 -4.543026 0.620531 -5.041222 -14.026268 -1.113067 0.233748 -0.339091 18.685127 5.507687 -22.745044 -1.942366 -10.587823 29.856050 -0.383509 -0.426729 -8.374898 -0.007267 -0.550789 1.513531 1.509585 -0.548055 3.697420 1.493005 -0.567017 -1.366995 1.188173 -0.632918 7.268012 -3.668178 -0.547231 -8.978024 3.332185 -0.209583 27.522164 0.683994 0.358233 10.219537 9.204421 5.320162 0.513666 -95.598950 -8.768372 28.308908 7.350557 -16.653555 -1.132724 -0.112409 -0.691746 -2.659284 23.758346 -3.041087 -1.013963 -7.125000 0.000000 0.000000 -2.061737 27.475437 0.878472 -8.251523 -4.397190 0.160360 93.232858 9.647217 10.038141 -9.244128 20.416856 -1.945252 0.766620 0.886329 33.422241 -20.583765 -23.181045 8.890604 7.125000 0.000000 0.000000 9.382145 -55.607059 -2.457984
0.489331 17.397206 -14.978006 -2.800180 -0.399554 9.332289 -0.699204 -0.767491 -0.255247 -13.525966 2.371583 -26.874575 1.560142 10.488790 29.218503 -0.362570 3.669771 -4.827697 0.625861 -5.062398 -14.086597 -1.154558 0.260340 -0.350586 18.631359 5.730326 -23.353596 -2.055219 -10.793198 30.451181 -0.403907 -0.395483 -8.674659 -0.006807 -0.531845 1.461538 1.530075 -0.537044 3.983005 1.493211 -0.541424 -1.356833 1.191288 -0.617931 7.189939 -3.699008 -0.535106 -9.043243 3.354078 -0.193340 27.109870 0.690502 0.359059 10.081596 9.196769 5.315230 0.511510 -95.510666 -8.580683 28.157060 7.340067 -16.638280 -1.129329 -0.110865 -0.692940 -2.760332 23.772771 -2.966723 -0.981163 -7.125000 0.000000 0.000000 -2.051346 27.557756 0.870101 -8.243867 -4.400212 0.159464 93.094178 9.489877 9.757175 -9.178802 20.313750 -1.921581 0.770067 0.885000 33.564412 -20.574040 -23.136088 8.871669 7.125000 0.000000 0.000000 9.372500 -55.560461 -2.444798
